<?xml version="1.0" encoding="UTF-8"?>
<svg width="800" height="600" viewBox="0 0 800 600" fill="none" xmlns="http://www.w3.org/2000/svg">
  <!-- Background with gradient -->
  <rect width="800" height="600" fill="url(#grad1)"/>
  
  <!-- Container orchestration representation -->
  <g id="containers">
    <!-- Central container -->
    <rect x="350" y="250" width="100" height="100" rx="10" fill="url(#containerGrad1)" opacity="0.9"/>
    
    <!-- Surrounding containers -->
    <rect x="200" y="150" width="80" height="80" rx="8" fill="url(#containerGrad2)" opacity="0.7"/>
    <rect x="520" y="150" width="80" height="80" rx="8" fill="url(#containerGrad2)" opacity="0.7"/>
    <rect x="200" y="370" width="80" height="80" rx="8" fill="url(#containerGrad2)" opacity="0.7"/>
    <rect x="520" y="370" width="80" height="80" rx="8" fill="url(#containerGrad2)" opacity="0.7"/>
  </g>
  
  <!-- Connection lines -->
  <g id="connections" stroke-dasharray="4 4">
    <path d="M400 300 L240 190" stroke="url(#lineGrad)" stroke-width="2"/>
    <path d="M400 300 L560 190" stroke="url(#lineGrad)" stroke-width="2"/>
    <path d="M400 300 L240 410" stroke="url(#lineGrad)" stroke-width="2"/>
    <path d="M400 300 L560 410" stroke="url(#lineGrad)" stroke-width="2"/>
  </g>
  
  <!-- Service mesh visualization -->
  <g id="mesh" opacity="0.2">
    <path d="M240 190 L560 190 L560 410 L240 410 Z" stroke="#3B82F6" stroke-width="1"/>
    <path d="M240 190 L400 300 L560 410" stroke="#3B82F6" stroke-width="1"/>
    <path d="M560 190 L400 300 L240 410" stroke="#3B82F6" stroke-width="1"/>
  </g>
  
  <!-- Kubernetes-inspired wheel -->
  <g id="wheel" transform="translate(400 300) rotate(45)">
    <circle cx="0" cy="0" r="20" stroke="url(#wheelGrad)" stroke-width="2" fill="none"/>
    <path d="M0 -25 L0 -15 M0 15 L0 25 M-25 0 L-15 0 M15 0 L25 0" 
          stroke="url(#wheelGrad)" stroke-width="2"/>
  </g>
  
  <!-- Definitions -->
  <defs>
    <linearGradient id="grad1" x1="0" y1="0" x2="800" y2="600" gradientUnits="userSpaceOnUse">
      <stop offset="0%" stop-color="#F8FAFC"/>
      <stop offset="100%" stop-color="#F1F5F9"/>
    </linearGradient>
    
    <linearGradient id="containerGrad1" x1="350" y1="250" x2="450" y2="350">
      <stop offset="0%" stop-color="#3B82F6"/>
      <stop offset="100%" stop-color="#1D4ED8"/>
    </linearGradient>
    
    <linearGradient id="containerGrad2" x1="0" y1="0" x2="1" y2="1">
      <stop offset="0%" stop-color="#60A5FA"/>
      <stop offset="100%" stop-color="#3B82F6"/>
    </linearGradient>
    
    <linearGradient id="lineGrad" x1="0" y1="0" x2="1" y2="1">
      <stop offset="0%" stop-color="#3B82F6"/>
      <stop offset="100%" stop-color="#1D4ED8"/>
    </linearGradient>
    
    <linearGradient id="wheelGrad" x1="0" y1="0" x2="1" y2="1">
      <stop offset="0%" stop-color="#3B82F6"/>
      <stop offset="100%" stop-color="#1D4ED8"/>
    </linearGradient>
  </defs>
</svg> 