<?xml version="1.0" encoding="UTF-8"?>
<svg width="800" height="600" viewBox="0 0 800 600" fill="none" xmlns="http://www.w3.org/2000/svg">
  <!-- Background with gradient -->
  <rect width="800" height="600" fill="url(#grad1)"/>
  
  <!-- Data nodes -->
  <g id="nodes">
    <circle cx="400" cy="300" r="60" fill="url(#nodeGrad1)" opacity="0.9"/>
    <circle cx="250" cy="200" r="40" fill="url(#nodeGrad2)" opacity="0.7"/>
    <circle cx="550" cy="200" r="40" fill="url(#nodeGrad2)" opacity="0.7"/>
    <circle cx="250" cy="400" r="40" fill="url(#nodeGrad2)" opacity="0.7"/>
    <circle cx="550" cy="400" r="40" fill="url(#nodeGrad2)" opacity="0.7"/>
  </g>
  
  <!-- Connection lines -->
  <g id="connections" stroke-width="2">
    <path d="M400 300 L250 200" stroke="url(#lineGrad)" opacity="0.6"/>
    <path d="M400 300 L550 200" stroke="url(#lineGrad)" opacity="0.6"/>
    <path d="M400 300 L250 400" stroke="url(#lineGrad)" opacity="0.6"/>
    <path d="M400 300 L550 400" stroke="url(#lineGrad)" opacity="0.6"/>
  </g>
  
  <!-- Data flow particles -->
  <g id="particles">
    <circle cx="325" cy="250" r="4" fill="#3B82F6"/>
    <circle cx="475" cy="250" r="4" fill="#3B82F6"/>
    <circle cx="325" cy="350" r="4" fill="#3B82F6"/>
    <circle cx="475" cy="350" r="4" fill="#3B82F6"/>
  </g>
  
  <!-- Abstract background patterns -->
  <path d="M100 100 L200 100 L150 173.2" fill="none" stroke="#E2E8F0" stroke-width="1" opacity="0.3"/>
  <path d="M600 500 L700 500 L650 426.8" fill="none" stroke="#E2E8F0" stroke-width="1" opacity="0.3"/>
  
  <!-- Definitions -->
  <defs>
    <linearGradient id="grad1" x1="0" y1="0" x2="800" y2="600" gradientUnits="userSpaceOnUse">
      <stop offset="0%" stop-color="#F8FAFC"/>
      <stop offset="100%" stop-color="#F1F5F9"/>
    </linearGradient>
    
    <radialGradient id="nodeGrad1" cx="400" cy="300" r="60">
      <stop offset="0%" stop-color="#3B82F6"/>
      <stop offset="100%" stop-color="#1D4ED8"/>
    </radialGradient>
    
    <radialGradient id="nodeGrad2" cx="0.5" cy="0.5" r="0.5">
      <stop offset="0%" stop-color="#60A5FA"/>
      <stop offset="100%" stop-color="#3B82F6"/>
    </radialGradient>
    
    <linearGradient id="lineGrad" x1="0" y1="0" x2="1" y2="1">
      <stop offset="0%" stop-color="#3B82F6"/>
      <stop offset="100%" stop-color="#1D4ED8"/>
    </linearGradient>
  </defs>
</svg> 